<svg xmlns="http://www.w3.org/2000/svg" viewBox="0 0 181.354 114.631"><g data-name="Layer 2"><g data-name="ART"><path d="M176.721 1.507l-172.179.14a3.049 3.049 0 00-3.035 3.04l.086 105.402a3.049 3.049 0 003.04 3.035l172.179-.14a3.05 3.05 0 003.035-3.04l-.086-105.402a3.049 3.049 0 00-3.04-3.035zM48.189 37.633l.01 13.008.005 5.12.002 2.767a2.026 2.026 0 01-2.023 2.027l-26.288.021a2.03 2.03 0 01-2.027-2.024l-.011-13.007-.004-5.121-.002-2.767a2.027 2.027 0 012.023-2.027l26.288-.02a2.03 2.03 0 012.027 2.023zM174.565 89.27a12.303 12.303 0 01-24.097 3.512 12.31 12.31 0 11-.01-6.985 12.305 12.305 0 0124.107 3.473z" fill="#fdbe2a"/><path d="M176.812 112.985a3.05 3.05 0 003.035-3.041l-.086-105.402a3.049 3.049 0 00-3.04-3.035l-34.83.028c-21.175 21.96-21.227 45.41-35.025 55.26-15.675 11.19-57.963 24.98-71.487 56.304zm-50.45-23.676a12.303 12.303 0 0124.097-3.512 12.31 12.31 0 11.009 6.985 12.305 12.305 0 01-24.107-3.473z" fill="#e8a91b"/><path d="M1.592 108.754v1.335a3.049 3.049 0 003.041 3.035l172.179-.14a3.05 3.05 0 003.035-3.04l-.001-1.335z" fill="#e8a91b"/><path d="M162.252 77.988a11.292 11.292 0 107.987 3.301 11.254 11.254 0 00-7.987-3.3z" fill="#ed9b42"/><path d="M149.957 89.29z" fill="#fdbe2a"/><path d="M18.878 56.291l.002 2.26a1.014 1.014 0 001.014 1.012l7.413-.006-.003-3.272zM18.876 51.167h8.426v4.108h-8.426zM28.318 56.28h9.437v3.273h-9.437zM38.769 59.548l7.413-.006a1.014 1.014 0 001.012-1.013l-.002-2.26-8.426.006zM38.764 51.151h8.426v4.108h-8.426zM28.302 36.632h9.437v3.273h-9.437zM27.288 36.637l-7.413.006a1.014 1.014 0 00-1.012 1.013l.002 2.26 8.426-.006zM18.872 46.047h8.426v4.108h-8.426zM18.867 40.926h8.426v4.108h-8.426zM46.163 36.622l-7.413.006.003 3.273 8.426-.007-.002-2.26a1.014 1.014 0 00-1.014-1.012zM38.76 46.03h8.426v4.108H38.76z" fill="#906e2d"/><path d="M28.316 55.271l9.437-.008-.008-9.736a.506.506 0 01.506-.506h.005l8.927-.007-.004-4.108-18.875.016z" fill="#906e2d"/><path d="M24.153 71.61l-.024.142h-.012a2.751 2.751 0 01-.474 1.06v.011a2.218 2.218 0 01-.952.763 3.662 3.662 0 01-1.38.274 2.8 2.8 0 01-1.572-.44 1.863 1.863 0 01-.823-1.438l-.035-.238.214-.06a.825.825 0 01.345-.083c.416 0 .547.369.62.57a.893.893 0 00.119.238 1.2 1.2 0 001.023.428 2.478 2.478 0 001.44-.465 1.687 1.687 0 00.369-1.238 2.011 2.011 0 00-.609-1.333 1.537 1.537 0 00-1.036-.296 7.269 7.269 0 00-.857.072h-.072c-.06.012-.13.012-.202.024a6.637 6.637 0 01-.833.06h-.142l-.096-.119a1.568 1.568 0 01-.215-1.012v-.106c0-.905.034-1.821.13-2.987v-.204l.225-.06h.012a13.376 13.376 0 011.488-.12h.011c.072 0 .156-.012.227-.012a7.156 7.156 0 001.202-.107h.095a1.027 1.027 0 01.201-.012c.762-.001.822.486.822.629v.084l-.047.083a.625.625 0 01-.56.262 1.335 1.335 0 01-.226-.023h-.094a.133.133 0 00-.06-.012c-.143.012-.298.024-.452.047-.096.001-.202.014-.31.026a9.677 9.677 0 01-1.226.084h-.238a17.78 17.78 0 00-.056 2.475 8.603 8.603 0 011.105-.096 2.961 2.961 0 011.894.534 2.795 2.795 0 01.834 1.083 2.868 2.868 0 01.227 1.511zM32.04 68.294a7.313 7.313 0 01-.224 1.714c-.416 1.834-.998 2.988-1.77 3.513h-.012a2.884 2.884 0 01-1.536.464 3 3 0 01-1.821-.653 3.86 3.86 0 01-1.156-1.475v-.011a6.594 6.594 0 01-.466-2.761 6.38 6.38 0 01.653-2.679v-.011a3.384 3.384 0 012.2-1.824h.024c.011-.011.035-.011.07-.011a.11.11 0 01.06.011 2.786 2.786 0 01.286-.023 3.324 3.324 0 01.869.105 3.672 3.672 0 011.441.809 4.326 4.326 0 011.06 1.32 3.43 3.43 0 01.322 1.512zm-4.114 4.716a1.324 1.324 0 00.226.012 2.545 2.545 0 001.416-.513 5.104 5.104 0 001.153-2.667l.012-.024a8.2 8.2 0 00.248-1.82 3.125 3.125 0 00-.965-1.762l-.012-.023a1.87 1.87 0 00-1.488-.642 3.025 3.025 0 00-.44.035 2.534 2.534 0 00-1.404 1.37 6.095 6.095 0 00-.175 4.453 3.163 3.163 0 00.632.974 1.752 1.752 0 00.797.607zM39.61 68.288a7.313 7.313 0 01-.224 1.714c-.416 1.833-.998 2.988-1.77 3.512h-.012a2.886 2.886 0 01-1.537.465 2.998 2.998 0 01-1.82-.653 3.87 3.87 0 01-1.156-1.474v-.012a6.597 6.597 0 01-.467-2.76 6.377 6.377 0 01.653-2.68v-.011a3.384 3.384 0 012.2-1.824h.024c.012-.011.035-.011.071-.011a.11.11 0 01.06.011 2.786 2.786 0 01.285-.023 3.282 3.282 0 01.87.105 3.66 3.66 0 011.44.81 4.326 4.326 0 011.06 1.32 3.43 3.43 0 01.322 1.511zm-4.115 4.716a1.33 1.33 0 00.227.012 2.545 2.545 0 001.416-.513 5.117 5.117 0 001.153-2.667l.012-.024a8.199 8.199 0 00.248-1.82 3.131 3.131 0 00-.966-1.763l-.012-.023a1.872 1.872 0 00-1.488-.64 3.025 3.025 0 00-.44.035 2.534 2.534 0 00-1.404 1.37 6.092 6.092 0 00-.175 4.45 3.166 3.166 0 00.632.976 1.76 1.76 0 00.797.607zM47.178 68.281a7.32 7.32 0 01-.224 1.715c-.416 1.833-.998 2.987-1.77 3.512h-.012a2.876 2.876 0 01-1.536.465 2.997 2.997 0 01-1.822-.653 3.877 3.877 0 01-1.155-1.474v-.012a6.602 6.602 0 01-.467-2.762 6.372 6.372 0 01.654-2.677v-.012a3.381 3.381 0 012.199-1.823h.024c.012-.012.035-.012.072-.012a.11.11 0 01.06.012 2.786 2.786 0 01.284-.024 3.242 3.242 0 01.87.106 3.648 3.648 0 011.44.808 4.315 4.315 0 011.06 1.32 3.425 3.425 0 01.323 1.511zm-4.115 4.717a1.329 1.329 0 00.227.012 2.553 2.553 0 001.416-.513 5.117 5.117 0 001.153-2.667l.012-.023a8.214 8.214 0 00.248-1.823 3.129 3.129 0 00-.966-1.76l-.011-.024a1.876 1.876 0 00-1.489-.641 3.178 3.178 0 00-.44.036 2.53 2.53 0 00-1.404 1.37 6.092 6.092 0 00-.174 4.451 3.166 3.166 0 00.632.976 1.766 1.766 0 00.796.606zM62.865 70.018l-.011.107a59.207 59.207 0 00-.095 1.536c-.012.25 0 .525.012.762v.012a5.194 5.194 0 01-.034 1.06l-.024.154-.154.06a.799.799 0 01-.358.095.497.497 0 01-.285-.083h-.012l-.107-.084-.025-.107v-.012a22.436 22.436 0 01.01-3.892l.011-.083a32.544 32.544 0 00.092-3.44c-.034.036-.07.06-.106.095-.012.012-.036.025-.06.048l-.32.263h-.013l-.012.012h-.012c-.011.011-.035.024-.048.036a1.957 1.957 0 01-.796.297.432.432 0 01-.464-.452v-.011c0-.262.248-.453.832-.823l.166-.094a2.845 2.845 0 00.25-.19s.036-.025.06-.037a1.545 1.545 0 01.88-.405.81.81 0 01.464.154v.012l.12.083v.119a21.776 21.776 0 01.04 4.808zM71.055 73.19a.511.511 0 01-.107.333l-.011.012a.922.922 0 01-.68.19l-.534-.022c-.298-.013-.62-.024-.952-.023a8.231 8.231 0 00-.822.071l-.048.012c-.273.025-.535.06-.773.06a1.691 1.691 0 01-.679-.118l-.011.001-.072-.06-.048-.072a.716.716 0 01.166-.834.44.44 0 00.083-.119l.072-.106c.142-.239.285-.489.416-.739.07-.119.13-.238.19-.356.143-.263.296-.548.51-.906a8.8 8.8 0 001.082-3.082 2.088 2.088 0 00-.24-1.429.468.468 0 00-.31-.179h-.083a1.8 1.8 0 00-.63.157.085.085 0 01-.072.035c-.084.06-.178.13-.274.203l-.023.023a1.19 1.19 0 01-.738.345.916.916 0 01-.452-.142h-.012l-.12-.094v-.144a.81.81 0 01.345-.618 4.1 4.1 0 01.583-.335h.012a2.768 2.768 0 011.32-.382 1.641 1.641 0 011.085.368 2.614 2.614 0 01.668 2.333 9.683 9.683 0 01-1.616 4.154l-.048.073v.011c-.212.345-.391.631-.534.893.464-.036.964-.036 1.452-.037.488 0 1.38-.013 1.38-.013a.479.479 0 01.203.048.434.434 0 01.131.12.452.452 0 01.19.367zM77.505 72.72a2.419 2.419 0 01-1.523 1.025 4.514 4.514 0 01-.917.096 2.77 2.77 0 01-1.273-.26 4.76 4.76 0 01-1.024-.762v-.012a1.908 1.908 0 01-.537-1.535v-.154l.143-.071a.77.77 0 01.357-.109.483.483 0 01.44.274l.013.012v.012a2.52 2.52 0 01.106.333l.036.179a1.232 1.232 0 00.572.713h.012l.071.06a.635.635 0 01.037.036c.119.07.238.166.32.202a2.013 2.013 0 00.584.082 2.525 2.525 0 001.5-.442 1.883 1.883 0 00.44-1.32 2.458 2.458 0 00-.396-1.524 1.767 1.767 0 00-1.332-.452 1.18 1.18 0 00-.31.026h-.036a.998.998 0 00-.13.047h-.012l-.012.011a3.388 3.388 0 01-.881.18.534.534 0 01-.583-.392c-.084-.393.308-.69.617-.917l.025-.025a1.326 1.326 0 00.213-.179 18.314 18.314 0 001.939-2.095l-.238-.012c-.62-.023-1.18-.046-1.714-.046-.239 0-.44.001-.643.013l-.19.023a2.164 2.164 0 01-.406.036.65.65 0 01-.725-.57v-.167l.107-.083a2.052 2.052 0 011.26-.25 3.676 3.676 0 00.536-.026 4.901 4.901 0 01.643-.035c.333-.001.69.022 1.035.046a2.15 2.15 0 01.274.012c.274.023.524.034.69.034h.012a2.543 2.543 0 01.476.06.678.678 0 01.524.368l.013.036v.012c.071.356-.274.702-.535.965a1.283 1.283 0 00-.12.13l-.01.012a31.226 31.226 0 01-1.595 1.751 2.716 2.716 0 011.06.225 2.547 2.547 0 01.857.643 3.23 3.23 0 01.692 1.975v.012a3.194 3.194 0 01-.462 1.797zM84.417 70.656l-.071.095c-.166.38-.701.38-.94.38a3.532 3.532 0 01-.356-.01h-.322c-.012.25 0 .548.012.857v.047l.001.18a8.653 8.653 0 01-.047 1.487v.166l-.155.06a.547.547 0 01-.273.071 1.024 1.024 0 01-.298-.047l-.131-.035-.06-.142a4.362 4.362 0 01-.143-1.572l-.001-.19c0-.262 0-.524-.024-.774a4.91 4.91 0 00-.56.047l-.059.013c-.06.012-.119.013-.167.024-.285.024-.571.06-.844.06a2.708 2.708 0 01-.905-.142l-.155-.047-.035-.155a2.322 2.322 0 01.296-1.357v-.012c.047-.096.094-.179.13-.273v-.013c.416-1.13.748-2.083 1.034-2.976l.048-.143a6.271 6.271 0 01.629-1.5l.06-.084.13-.035h.023a.093.093 0 00.048-.012h.072a.569.569 0 01.416.178.04.04 0 01.024.012l.023.024.012.012c0 .011.013.011.013.011l.155.131-.06.19a174.401 174.401 0 01-1.52 4.394c-.059.166-.13.333-.19.512l-.082.25h.035a7.443 7.443 0 001.13-.12l.298-.048a3.59 3.59 0 00-.012-.62 2.261 2.261 0 01.047-.892l.046-.179.167-.023a.984.984 0 01.166-.012.834.834 0 01.526.19l.119.06v.165c.035.452.059.81.06 1.274a2.356 2.356 0 00.286-.024h.011c.167-.011.333-.024.5-.024a1.579 1.579 0 01.43.047.576.576 0 01.427.417zM101.294 71.547l-.024.142h-.012a2.751 2.751 0 01-.475 1.06v.012a2.21 2.21 0 01-.95.762 3.662 3.662 0 01-1.382.275 2.8 2.8 0 01-1.571-.44 1.863 1.863 0 01-.823-1.438l-.035-.238.213-.06a.808.808 0 01.346-.083c.416 0 .547.368.62.57a.893.893 0 00.118.238 1.2 1.2 0 001.024.427 2.478 2.478 0 001.44-.464 1.686 1.686 0 00.368-1.239 2.011 2.011 0 00-.608-1.333 1.542 1.542 0 00-1.036-.296 7.269 7.269 0 00-.858.073h-.07c-.06.011-.132.011-.203.023a6.637 6.637 0 01-.833.06H96.4l-.095-.118a1.568 1.568 0 01-.215-1.012v-.107c0-.905.034-1.82.129-2.987v-.203l.225-.06h.013a13.377 13.377 0 011.487-.12h.012c.071 0 .155-.012.227-.012a7.156 7.156 0 001.202-.108h.094a1.027 1.027 0 01.202-.012c.761 0 .822.487.822.63v.083l-.047.083a.625.625 0 01-.56.263 1.335 1.335 0 01-.226-.023h-.095a.133.133 0 00-.06-.012c-.142.012-.297.023-.452.047-.095 0-.202.013-.31.025a9.677 9.677 0 01-1.226.084h-.237a17.78 17.78 0 00-.057 2.476 8.603 8.603 0 011.106-.096 2.961 2.961 0 011.893.533 2.795 2.795 0 01.834 1.083 2.868 2.868 0 01.228 1.512zM107.768 71.481a2.777 2.777 0 01-.357 1.061 2.879 2.879 0 01-.666.75h-.012a2.34 2.34 0 01-.962.5 2.803 2.803 0 01-.525.06 2.886 2.886 0 01-1.834-.712 2.545 2.545 0 01-.893-1.332 4.879 4.879 0 01-.192-1.69v-.013a8.099 8.099 0 01.866-3.213 10.262 10.262 0 01.773-1.251 2.039 2.039 0 01.951-.81h.012a1.308 1.308 0 01.286-.036.689.689 0 01.667.523l.096.239-.239.119a4.432 4.432 0 00-1.996 2.87 3.855 3.855 0 011.189-.216 2.346 2.346 0 01.881.154 4.029 4.029 0 011.12.773h.011a3.224 3.224 0 01.763.987 2.482 2.482 0 01.06 1.237zm-1.096-.987a2.577 2.577 0 00-1.942-1.152 1.614 1.614 0 00-.75.202l-.011.013h-.012c-.023.023-.12.094-.285.238-.143.13-.214.215-.237.238a3.494 3.494 0 000 .929v.023a1.93 1.93 0 001.513 1.82 2.348 2.348 0 00.262.023c.44 0 .702-.238 1.095-.643.011-.012.011-.024.023-.024a.092.092 0 01.048-.048l.095-.273a2.318 2.318 0 00.2-1.346zM113.726 66.168l-.012.024-.131.297c-.084.203-.144.418-.227.632a2.897 2.897 0 01-.141.429c-.12.357-.262.821-.44 1.262h.12a.744.744 0 01.57.2h.013a.64.64 0 01.13.43v.023l-.023.084-.048.071-.012.012a1.334 1.334 0 01-.904.25h-.012c-.083 0-.154.013-.237.013-.38.93-.737 1.893-.998 2.726l-.071.31-.012.023a1.42 1.42 0 01-.309.751l-.06.096h-.107a.694.694 0 01-.142.012.716.716 0 01-.321-.072l-.227-.071-.023-.179v-.012a2.98 2.98 0 01.33-1.452c.024-.084.06-.155.084-.238a2.186 2.186 0 00.095-.25v-.023l.012-.025a7.531 7.531 0 00.26-.81c.072-.25.143-.475.215-.666h-.202a3.406 3.406 0 01-.345.024.862.862 0 01-.643-.214l-.011-.011a.662.662 0 01-.109-.57l.06-.228h.225l.489-.024h.142a6.276 6.276 0 00.821-.072c.214-.548.428-1.143.618-1.702.13-.405.286-.834.44-1.263-.287 0-.572-.035-.87-.058l-.071-.012a1.233 1.233 0 01-.202-.025c-.274-.023-.572-.057-.87-.057a2.794 2.794 0 00-.38.047h-.036c-.047.011-.095.011-.143.024-.131.012-.274.036-.404.036a.98.98 0 01-.512-.119.673.673 0 01-.345-.487l-.024-.155.107-.107a.899.899 0 01.678-.226h.118a.157.157 0 00.072.011h.166a.899.899 0 00.227-.036h.023c.036 0 .083-.013.131-.013a1.974 1.974 0 01.262-.023h.024a5.435 5.435 0 01.655.082c.155.024.31.048.464.06h.013a1.886 1.886 0 00.285.012 1.21 1.21 0 00.214-.012l.227-.001a1.105 1.105 0 00.19-.012h.227a4.138 4.138 0 01.808.07h.012l.096.036.048.072c.285.333.094.761-.047 1.106zM121.49 72.459a2.369 2.369 0 01-1.058 1.096 4.48 4.48 0 01-1.666.262 3.865 3.865 0 01-1.703-.295 2.499 2.499 0 01-1.085-1.536 2.676 2.676 0 01.012-1.19 2.422 2.422 0 01.464-.928 4.968 4.968 0 011.308-1.096 2.508 2.508 0 01-1.048-1.225 1.789 1.789 0 01.118-1.476l-.001-.011a3.597 3.597 0 01.75-.918 2.12 2.12 0 011.117-.561h.025a2.937 2.937 0 01.32-.012 2.279 2.279 0 011.43.451 1.868 1.868 0 01.739 1.213 2.477 2.477 0 01-.428 1.62 4.919 4.919 0 01-.713.822 4.926 4.926 0 01.964.678 2.503 2.503 0 01.812 1.546v.012a2.738 2.738 0 01-.357 1.548zm-1.036-.547a2.064 2.064 0 00.297-1c-.084-.904-.965-1.225-1.822-1.522l-.346.226-.047.024a4.42 4.42 0 00-1.403 1.214 1.46 1.46 0 00.24 1.655 2.414 2.414 0 001.094.166 4.978 4.978 0 00.643-.036l.274-.024c.119-.012.225-.024.298-.037v-.047h.142a1.54 1.54 0 00.63-.619zm-1.338-6.33h-.012a1.423 1.423 0 00-.963.56l-.012.011a1.723 1.723 0 00-.487 1.036c0 .357.464.56.905.761h.012l.297.155a2.961 2.961 0 001.308-1.513.865.865 0 00-.25-.738 2.54 2.54 0 00-.274-.107 1.157 1.157 0 01-.18-.058l-.296-.096a.072.072 0 01-.048-.012zM137.943 64.97v.155c-.058 1.856-.175 3.749-.294 5.678-.07.999-.117 1.834-.164 2.654v.144l-.119.094h-.012a.536.536 0 01-.296.084.79.79 0 01-.298-.06l-.239-.07-.023-.18a10.992 10.992 0 01-.002-1.988l.012-.06c.035-.463.082-.986.07-1.546a3.36 3.36 0 01-.726.06 3.22 3.22 0 01-1.13-.177 1.412 1.412 0 01-.834-.725 2.931 2.931 0 01-.18-1.464 3.592 3.592 0 01.51-1.464 3.026 3.026 0 01.82-.953h.013a2.234 2.234 0 011.165-.465 1.794 1.794 0 01.25-.013h.143a.491.491 0 00.131.012h.143a.45.45 0 00.13.011h.108a.433.433 0 01.237-.071.61.61 0 01.418.214l.036.035zm-2.341 3.966a3.738 3.738 0 001.083-.18c.058-.559.07-1.19.08-1.797.012-.44.012-.893.047-1.333a2.18 2.18 0 00-2.057 2.358 1.483 1.483 0 00.108.727l.012.012.012.011.012.012a.988.988 0 00.703.19zM143.064 69.953l-.011.108c-.036.5-.072 1.023-.095 1.535-.012.25.001.524.013.761v.012a5.193 5.193 0 01-.034 1.06l-.025.155-.154.06a.811.811 0 01-.358.095.497.497 0 01-.285-.083h-.011l-.108-.084-.024-.106v-.013a22.436 22.436 0 01.008-3.891l.012-.083a32.541 32.541 0 00.092-3.44c-.034.035-.07.06-.105.095-.013.011-.037.024-.06.048l-.321.261h-.013l-.012.012h-.011c-.012.012-.036.024-.048.036a1.958 1.958 0 01-.797.299.434.434 0 01-.464-.453v-.012c0-.262.248-.452.832-.821l.166-.096a2.845 2.845 0 00.25-.19s.036-.025.06-.036a1.551 1.551 0 01.88-.406.81.81 0 01.464.155v.011l.12.084v.12a21.775 21.775 0 01.04 4.807zM152.88 68.196a7.313 7.313 0 01-.224 1.714c-.416 1.833-.998 2.988-1.77 3.512h-.012a2.886 2.886 0 01-1.536.466 3 3 0 01-1.821-.654 3.86 3.86 0 01-1.156-1.474v-.012a6.594 6.594 0 01-.466-2.76 6.377 6.377 0 01.653-2.68v-.011a3.384 3.384 0 012.2-1.823h.023c.012-.012.036-.012.072-.012a.11.11 0 01.06.012 2.786 2.786 0 01.284-.024 3.282 3.282 0 01.87.106 3.66 3.66 0 011.441.808 4.326 4.326 0 011.06 1.32 3.43 3.43 0 01.322 1.512zm-4.114 4.716a1.323 1.323 0 00.226.012 2.545 2.545 0 001.416-.513 5.108 5.108 0 001.153-2.667l.012-.023a8.198 8.198 0 00.248-1.822 3.131 3.131 0 00-.966-1.761l-.011-.024a1.872 1.872 0 00-1.489-.64 3.025 3.025 0 00-.44.035 2.534 2.534 0 00-1.403 1.37 6.092 6.092 0 00-.175 4.451 3.167 3.167 0 00.632.976 1.76 1.76 0 00.797.606zM157.749 69.941l-.012.108a58.86 58.86 0 00-.094 1.535c-.012.25 0 .524.012.762v.011a5.193 5.193 0 01-.034 1.06l-.024.155-.155.06a.802.802 0 01-.357.095.504.504 0 01-.285-.082h-.012l-.107-.084-.024-.107v-.013a22.336 22.336 0 01.008-3.891l.012-.083a32.544 32.544 0 00.092-3.44c-.035.036-.07.06-.106.095-.012.012-.036.024-.06.048l-.32.262h-.013l-.012.011h-.012c-.012.012-.035.025-.048.036a1.972 1.972 0 01-.797.3.436.436 0 01-.464-.454v-.012c0-.261.249-.452.833-.822l.166-.095a2.845 2.845 0 00.25-.19s.036-.024.06-.036a1.551 1.551 0 01.879-.405.81.81 0 01.465.154v.012l.119.084v.119a21.775 21.775 0 01.04 4.807zM22.952 94.618a2.615 2.615 0 01-.78.887 2.717 2.717 0 01-1.12.455h-.02a4.385 4.385 0 01-.57.032h-.423a8.179 8.179 0 00.054.824 7.6 7.6 0 010 1.626l-.03.19-.17.021c-.01 0-.01.011-.02.011a.588.588 0 01-.138.01.526.526 0 01-.412-.167 1.671 1.671 0 01-.222-1.194v-.2c0-.38-.033-.824-.065-1.225l-.031-.56c-.023-.696-.001-1.393.018-2.058v-.033c.021-.854.032-1.657-.022-2.396l-.032-.296.306.021h.01a.696.696 0 00.149.011c.136 0 .274-.022.41-.033l.022-.01a3.786 3.786 0 01.592-.054h.147a3.167 3.167 0 012.43 1.773v.01a2.658 2.658 0 01-.083 2.355zm-2.935-.948c-.01.443-.02.907-.01 1.435h.127a2.421 2.421 0 001.731-.656 1.532 1.532 0 00.432-1.098 2.075 2.075 0 00-1.955-1.952 1.794 1.794 0 00-.349.042c.054.814.044 1.51.024 2.229zM28.477 97.907a.405.405 0 01-.042.38.842.842 0 01-.623.276 2.444 2.444 0 01-.423.042c-.148 0-.317-.01-.465-.021a5.526 5.526 0 00-.411-.02l-.053.01a9.932 9.932 0 01-1.193.097 3.138 3.138 0 01-.898-.116l-.138-.032-.052-.147v-.01a6.291 6.291 0 01-.097-2.123c0-1.658.008-3.77.09-5.438v-.253l3.634-.003a.889.889 0 01.169-.012.563.563 0 01.443.17.452.452 0 01.063.4l-.032.127-.127.053h-.01a7.194 7.194 0 01-2.301.244c-.116.011-.232.011-.338.011-.179 0-.359.012-.538.012 0 .423-.011.834-.03 1.277 0 .138-.011.276-.011.423-.011.296-.022.602-.02.919.506.04 1.034.052 1.498.052a12.42 12.42 0 011.7.071s.19.021.212.053a.459.459 0 01.01.2.538.538 0 01-.42.539 1.712 1.712 0 01-.518.064 1.684 1.684 0 01-.233-.01h-.137c-.211 0-.454-.01-.697-.02-.147 0-.296 0-.443-.01h-.01c-.328-.022-.655-.03-.963-.042.001.233-.01.454-.02.697v.296c-.01.528-.02 1.066.003 1.689h.295c.221-.001.443-.012.655-.022.105 0 .21-.01.306-.01.306-.022.644-.044 1.002-.044a6.862 6.862 0 01.95.062.537.537 0 01.15.043.654.654 0 01.063.126zM34.81 98.367l-.02.074-.075.053h-.01a.535.535 0 01-.307.084c-.443 0-.665-.453-.78-.706l-.022-.053v-.021c-.033-.042-.053-.095-.085-.148-.01-.021-.02-.032-.032-.052-.106-.212-.254-.518-.391-.729-.158-.264-.296-.539-.424-.802-.02-.032-.042-.074-.062-.105v-.01a23.975 23.975 0 00-.455-.888c-.222-.39-.455-.78-.687-1.16-.033-.053-.065-.106-.096-.148-.19-.296-.37-.612-.55-.92-.105-.168-.212-.348-.317-.517.012.54.022 1.352.033 2.144.012.908.023 1.764.024 2.154a.463.463 0 00.01.116 3.222 3.222 0 01-.01.444v.201a1.656 1.656 0 010 .231v.011a1.332 1.332 0 00-.01.212 1.777 1.777 0 01-.042.475.474.474 0 01-.476.37h-.042c-.137-.01-.316-.106-.38-.422a2.857 2.857 0 01-.021-.518.463.463 0 00.01-.116c.021-1.119.02-2.048.02-3.136 0-.285 0-.57-.002-.876 0-.444-.01-.877-.022-1.341-.01-.486-.023-.982-.023-1.52v-.18l.17-.053c.01-.01.02-.01.032-.02a.375.375 0 01.147-.033.882.882 0 01.76.433c.043.052.074.116.117.168a15.153 15.153 0 011.047 1.593l.116.19c.476.824 1.015 1.763 1.47 2.681l.433.845c-.021-.676-.075-1.33-.118-1.974-.074-1.14-.16-2.312-.161-3.59v-.117l.085-.084.01-.01a.037.037 0 00.021-.011.37.37 0 01.254-.075 1.13 1.13 0 01.39.074l.138.053.021.158.01.212c.064 1.203.119 2.354.162 3.473l.032.92c.022.801.044 1.562.118 2.28v.021a1.085 1.085 0 00.022.158v.011a.797.797 0 01-.032.496zM41.545 98.361l-.02.075-.075.052h-.01a.543.543 0 01-.306.085c-.444 0-.666-.454-.781-.707l-.022-.052v-.022c-.031-.042-.053-.095-.085-.147-.01-.022-.02-.033-.031-.053a8.001 8.001 0 00-.392-.728c-.158-.264-.296-.539-.424-.802-.02-.033-.042-.075-.062-.106v-.01a22.595 22.595 0 00-.455-.887 44.23 44.23 0 00-.687-1.162c-.033-.052-.064-.105-.096-.147-.19-.296-.37-.612-.55-.919-.105-.168-.211-.348-.317-.517.012.54.023 1.352.034 2.144.011.908.022 1.764.023 2.154a.463.463 0 00.01.117 3.222 3.222 0 01-.01.443v.201a1.656 1.656 0 01.001.232v.01a1.332 1.332 0 00-.01.212 1.777 1.777 0 01-.043.475.473.473 0 01-.475.37h-.042c-.137-.01-.317-.107-.38-.423a2.843 2.843 0 01-.022-.517.474.474 0 00.011-.117c.02-1.119.02-2.048.019-3.135l-.001-.876c0-.445-.011-.877-.023-1.342-.01-.485-.022-.98-.022-1.52v-.179l.169-.054c.01-.01.021-.01.032-.02a.38.38 0 01.147-.033.883.883 0 01.761.434c.042.052.073.116.116.168a15.073 15.073 0 011.047 1.593l.116.19c.476.823 1.015 1.764 1.47 2.68l.434.845c-.022-.676-.075-1.33-.118-1.973-.075-1.141-.16-2.313-.162-3.591v-.116l.085-.084.01-.011a.037.037 0 00.022-.01.365.365 0 01.254-.075 1.13 1.13 0 01.39.074l.137.052.021.158.011.212c.065 1.203.118 2.354.161 3.474l.032.919c.022.801.043 1.562.119 2.28v.021a1.085 1.085 0 00.021.158v.011a.797.797 0 01-.032.496zM47.112 90.491l-.021.2a9.842 9.842 0 01-.737 2.25c-.063.137-.127.274-.19.4-.042.086-.085.17-.127.264l-.179.34a3.251 3.251 0 01-.158.284c-.031.053-.063.096-.084.138v.01a1.605 1.605 0 00-.358 1.11c0 .622.043 1.605.096 2.28v.01a.261.261 0 00.011.085.062.062 0 00.01.042.612.612 0 01-.179.655h-.01a.331.331 0 01-.222.074.446.446 0 01-.2-.041h-.022a.038.038 0 00-.031-.01h-.19l-.053-.201a16.013 16.013 0 01-.193-3.02v-.19a1.115 1.115 0 000-.328v-.01a2.078 2.078 0 00-.348-.623v-.01a.593.593 0 01-.085-.138 1.632 1.632 0 01-.117-.159l-.264-.484c-.138-.201-.233-.39-.307-.518-.126-.243-.264-.464-.391-.675-.053-.095-.106-.19-.159-.275l-.042-.074c-.19-.306-.37-.611-.529-.918l-.02-.053v-.063a.357.357 0 01.221-.338h.01a.484.484 0 01.148-.043h.053l.116-.02.159-.075.127.158a21.84 21.84 0 011.522 2.46l.433.76a11.503 11.503 0 00.822-1.807 11.896 11.896 0 01.643-1.543l.053-.105.138-.031h.031a.363.363 0 01.064-.011.595.595 0 01.327.116l.01.01.064.043zM58.683 90.724l-.054.19h-.01c-.106.36-.22.718-.337 1.066-.39 1.226-.8 2.504-1.085 3.824v.01l-.01.011c-.128.38-.221.76-.305 1.13a9.42 9.42 0 01-.264 1.004c-.095.338-.232.654-.56.654-.252 0-.485-.188-.739-.611a7.588 7.588 0 01-.348-.707 1.106 1.106 0 00-.054-.116.161.161 0 01-.02-.064.159.159 0 01-.022-.031l-.01-.01v-.011a11.514 11.514 0 01-.456-1.236q-.094.207-.19.412a6.846 6.846 0 01-.316.634l-.284.507c-.2.36-.411.74-.654 1.12l-.031.043-.053.01a.248.248 0 01-.053.032.414.414 0 01-.169.042.496.496 0 01-.465-.253 1.66 1.66 0 01-.137-.38 32.936 32.936 0 00-.34-1.077c-.454-1.425-.92-2.903-1.291-4.518l-.158-.602c-.022-.084-.042-.19-.064-.274a5.604 5.604 0 01-.17-.782v-.18l.148-.073a.66.66 0 01.306-.074.607.607 0 01.454.22 2.314 2.314 0 01.37 1.089 2.646 2.646 0 00.043.285c.021.095.042.179.063.264a.942.942 0 01.043.137v.02a45.994 45.994 0 001.281 4.53 15.843 15.843 0 00.791-1.532c.064-.127.127-.264.19-.39a1.475 1.475 0 00.084-.212 1.95 1.95 0 01.21-.454.574.574 0 01.476-.275.512.512 0 01.233.052c.243.106.358.464.518 1.024v.043a7.912 7.912 0 00.613 1.709 4.9 4.9 0 00.127-.485v-.011c.042-.127.073-.264.105-.402.347-1.298.674-2.523 1.095-3.77.052-.148.094-.316.137-.485a4.357 4.357 0 01.453-1.183v-.01l.053-.075.073-.02a.36.36 0 01.17-.034.614.614 0 01.4.158l.043.022zM61.61 98.113l-.03.085c-.117.317-.466.327-.698.338h-.01a.313.313 0 00-.096.01h-.074l-.306.086c-.032.01-.063.01-.095.021a1.699 1.699 0 01-.463.074.76.76 0 01-.55-.211l-.096-.094.022-.138a.407.407 0 01.316-.339.628.628 0 01.243-.042.13.13 0 01.064-.01h.063c.01-.412 0-.876-.022-1.426v-.01c0-.074-.01-.16-.012-.232a23.008 23.008 0 01.03-2.556 20.545 20.545 0 00.03-2.133h-.01a2.536 2.536 0 01-.296.022 1.191 1.191 0 01-.348-.043.497.497 0 01-.338-.41l-.022-.17.148-.095a3.375 3.375 0 011.235-.234c.106-.01.222-.021.349-.021a.934.934 0 01.454.095.494.494 0 01.285.412l.032.084-.063.085a.501.501 0 01-.475.221h-.042c.02.803 0 1.595-.02 2.43v.4c-.02 1.098-.04 2.228.014 3.39h.022a2.027 2.027 0 01.242-.021.455.455 0 01.497.358zM67.132 97.58a2.345 2.345 0 01-1.13.878 4.078 4.078 0 01-1.54.297 2.9 2.9 0 01-1.51-.38 2.338 2.338 0 01-.846-1.413.91.91 0 01.168-.845l.01-.01.073-.053h.085c.021 0 .042-.011.074-.011a.53.53 0 01.508.337v.01a1.217 1.217 0 01.052.433v.106l.011.021v.02a1.478 1.478 0 00.339.624 2.116 2.116 0 001.13.21h.042a1.86 1.86 0 001.752-1.046 1.574 1.574 0 00-.328-1.71 2.925 2.925 0 00-1.416-.538h-.011a.459.459 0 01-.106-.022 2.828 2.828 0 01-1.351-.537 2.269 2.269 0 01-.636-1.667 2.145 2.145 0 01.76-1.48 2.348 2.348 0 012.724-.265 1.96 1.96 0 01.422.316.612.612 0 01.192.664l-.085.211-.2-.051a2.034 2.034 0 01-.773-.317h-.01l-.01-.01a1.081 1.081 0 00-.613-.221 1.55 1.55 0 00-.338.042 1.24 1.24 0 00-.696.518 1.71 1.71 0 00-.349.887v.01a.827.827 0 00.551.897v.011a1.869 1.869 0 00.644.116h.01a2.4 2.4 0 01.444.064 3.083 3.083 0 012.135 1.666 2.373 2.373 0 01-.178 2.238zM72.864 97.871a.403.403 0 01-.043.38.835.835 0 01-.622.276 2.443 2.443 0 01-.423.042c-.147 0-.316-.01-.465-.021a6.11 6.11 0 00-.41-.02l-.053.01a9.735 9.735 0 01-1.194.097 3.172 3.172 0 01-.897-.115l-.138-.033-.053-.147v-.01a6.29 6.29 0 01-.096-2.123c-.001-1.658.008-3.77.09-5.438v-.253l3.633-.003a.892.892 0 01.17-.011.562.562 0 01.443.168.452.452 0 01.063.401l-.032.127-.127.053h-.01a7.166 7.166 0 01-2.302.244c-.115.01-.231.01-.337.012-.18 0-.359.01-.539.01 0 .423-.01.835-.03 1.278 0 .138-.01.275-.01.423-.011.296-.022.601-.021.919.507.042 1.035.052 1.5.052a12.413 12.413 0 011.7.07s.19.022.211.054a.459.459 0 01.01.2.54.54 0 01-.421.54 1.736 1.736 0 01-.518.063 1.684 1.684 0 01-.232-.01h-.137c-.212 0-.454-.01-.697-.02-.148 0-.296 0-.443-.01h-.011c-.327-.022-.654-.031-.961-.042 0 .233-.01.454-.022.697v.295c-.008.529-.02 1.067.002 1.69h.296c.222 0 .444-.012.656-.023.105 0 .21-.01.305-.01.307-.02.645-.043 1.003-.043a7.04 7.04 0 01.951.062.532.532 0 01.148.043.716.716 0 01.063.126z" fill="#3e4147"/><path d="M37.511 108.725q-1.158 2.13-2.132 4.374l141.433-.114a3.05 3.05 0 003.035-3.041l-.001-1.335z" fill="#d09d2a"/><path d="M3.916 114.63a3.84 3.84 0 01-3.83-3.826L0 3.976A3.838 3.838 0 013.828.14L177.433 0h.004a3.836 3.836 0 013.83 3.827l.087 106.828a3.838 3.838 0 01-3.828 3.835l-173.605.14zm173.61-1.14zM177.436 2h-.002L3.83 2.14A1.834 1.834 0 002 3.975l.087 106.828a1.839 1.839 0 001.829 1.829h.003l173.605-.14a1.834 1.834 0 001.83-1.834L179.269 3.83A1.833 1.833 0 00177.438 2z" fill="#3e4147"/><path d="M18.942 61.07a1.568 1.568 0 01-1.567-1.565l-.019-22.8a1.567 1.567 0 011.566-1.567l28.192-.024a1.571 1.571 0 011.569 1.564l.018 22.801a1.571 1.571 0 01-1.563 1.569h-.002zm28.193-1.022zm-27.779-22.91l.019 21.932 27.326-.022-.018-21.934zm27.776 21.91zM19.356 36.7z" fill="#3e4147"/><path d="M27.813 61.063a1 1 0 01-1-.999l-.019-23.932a1 1 0 01.999-1.001h.001a1 1 0 011 .999l.02 23.932a1 1 0 01-1 1.001zM38.257 44.527a.999.999 0 011 1v14.528a1 1 0 01-1 1h-.001a.999.999 0 01-1-1V45.528a1 1 0 011-1zM38.245 35.122h.001a.999.999 0 011 1v4.285a1 1 0 01-1 1h-.002a.999.999 0 01-.999-.999v-4.286a1 1 0 011-1z" fill="#3e4147"/><path d="M18.36 41.424a1 1 0 01-.002-2l29.327-.025a1 1 0 01.002 2l-29.327.025zM38.251 46.528a1 1 0 01-.001-2l9.438-.007h.001a1 1 0 01.001 2l-9.438.007zM18.363 46.544a1 1 0 010-2l9.437-.008a1 1 0 01.002 2l-9.438.008zM38.256 51.648a1 1 0 01-.001-2l9.437-.007h.001a1 1 0 01.001 2l-9.437.007zM18.367 51.665a1 1 0 010-2l9.438-.008a1 1 0 01.002 2l-9.439.008zM18.372 56.785a1 1 0 010-2l29.325-.023h.001a1 1 0 01.001 2l-29.326.023z" fill="#3e4147"/><circle cx="138.665" cy="89.299" r="11.798" fill="#c5a7d4"/><path d="M138.664 102.097a12.798 12.798 0 01-.01-25.596h.01a12.812 12.812 0 0112.799 12.788 12.797 12.797 0 01-12.787 12.808zm0-23.596h-.008a10.798 10.798 0 00.008 21.596h.01a10.796 10.796 0 0010.789-10.806 10.812 10.812 0 00-10.799-10.79z" fill="#3e4147"/><circle cx="162.261" cy="89.28" r="11.798" fill="#9569b8"/><path d="M162.262 102.078a12.798 12.798 0 01-.012-25.596h.012a12.798 12.798 0 0112.797 12.788 12.798 12.798 0 01-12.788 12.808zm0-23.596h-.01a10.798 10.798 0 00.01 21.596h.008a10.81 10.81 0 0010.789-10.807 10.796 10.796 0 00-10.797-10.789z" fill="#3e4147"/></g></g></svg>
